<svg width="126" height="126" fill="none" xmlns="http://www.w3.org/2000/svg"><path d="M51.433 15.57a19.536 19.536 0 0 0-5.474.808 18.344 18.344 0 0 0-4.872 2.271c1.614 4.101 5.734 9.307 10.506 13.75 4.983 4.64 10.696 8.582 14.385 10.36l.044.02.042.022a15.818 15.818 0 0 1 7.177 7.508c.892 1.947 1.412 3.987 1.715 6.06 2.717-2.119 5.58-3.816 8.492-5.047-.221-3.827-1.063-7.84-2.596-11.857-3.216-8.426-8.832-15.21-15.192-19.347-4.572-2.973-9.478-4.582-14.227-4.549Zm-15.968 8.84a24.248 24.248 0 0 0-2.61 5.515c-2.224 6.703-2.044 15.11 1.172 23.538 1.946 5.1 4.772 9.596 8.11 13.27a35.235 35.235 0 0 1 9.597 4.567 35.548 35.548 0 0 1 6.287 5.403c.595.144 1.19.267 1.785.364a49.14 49.14 0 0 1 4.414-8.746 50.034 50.034 0 0 1 3.597-4.965 48.437 48.437 0 0 0-.045-3.14c-.14-2.714-.575-5.036-1.371-6.774-.796-1.737-1.833-2.951-3.775-3.948l.086.042c-4.781-2.304-10.752-6.514-16.246-11.631-4.368-4.067-8.42-8.622-11.001-13.495Zm58.463 28.365c-2.822.023-5.808.678-8.83 1.932-6.445 2.676-12.916 8.098-17.703 15.632-2.448 3.854-4.208 7.872-5.302 11.812 4.295 7.206 5.35 15.482 2.256 22.433.5.714 1.058 1.386 1.669 2.009 4.523-3.903 9.736-7.136 13.44-10.455 2.026-1.814 3.56-3.61 4.411-5.32.852-1.712 1.145-3.281.702-5.418l-.026-.125-.017-.125c-1.683-12.183 1.27-19.342 5.573-23.722 3.46-3.521 6.904-5.376 9.28-7.825-1.717-.57-3.547-.844-5.453-.828Zm11.86 5.005c-3.476 4.32-7.76 6.315-10.32 8.921-2.942 2.994-4.973 6.599-3.494 17.368a15.817 15.817 0 0 1-1.37 10.102c-1.484 2.978-3.701 5.399-6.125 7.57-3.68 3.298-7.927 6.122-11.478 8.878 4.028 1.046 8.614.54 13.284-1.399 6.445-2.675 12.917-8.098 17.703-15.631 4.787-7.534 6.946-15.697 6.63-22.668-.241-5.33-1.888-9.899-4.83-13.14ZM91.974 84.068l-.036-.197.043.25a1.526 1.526 0 0 0-.007-.052ZM33.412 69.142c-3.842-.035-7.46.808-10.507 2.468l.06.002c1.804.064 4.068-.149 6.675.207 2.606.356 5.66 1.54 7.973 4.157 2.314 2.618 3.9 6.329 5.005 11.658l.026.124.017.126c.513 3.718 2.881 5.869 6.987 7.883 3.504 1.718 8.002 2.946 12.271 4.195 1.912-8.569-2.625-19.019-12.29-25.544-5.212-3.519-10.925-5.228-16.217-5.276Zm-16.944 8.662c-5.281 9.097-1.046 22.446 10.471 30.221 11.332 7.651 25.034 6.746 31.628-1.191-3.853-1.098-8.22-2.345-12.232-4.312-5.172-2.537-10.102-6.8-11.097-13.421-.947-4.535-2.213-6.955-3.262-8.142-1.053-1.193-1.875-1.483-3.354-1.685-1.48-.202-3.514-.058-5.922-.142-1.876-.067-4.078-.336-6.232-1.328ZM35.238 89.1l.014.062-.044-.25.03.189Z" fill="#fff"/></svg>