<svg width="127" height="126" fill="none" xmlns="http://www.w3.org/2000/svg"><path d="M21.106 86.625V42h-5.25v-5.25h5.25V31.5h-5.25v-5.25h5.25V21h-5.25v-5.25h31.5c2.625.158 4.988 1.26 7.035 3.308 2.048 2.047 3.203 4.567 3.465 7.192h52.5v5.25h-52.5c-.262 2.782-1.417 5.25-3.465 7.508-2.047 2.257-4.41 3.255-7.035 2.992h-10.5v37.013c.263 0 .683-.053 1.26-.263.578-.21 1.05 0 1.365 0 2.94 0 6.3.735 10.08 2.205 2.153-4.83 5.828-9.135 11.078-12.705 5.25-3.57 10.5-5.25 15.75-5.25 8.032 0 14.857 2.782 20.422 8.347 5.565 5.566 8.295 12.39 8.295 20.528v1.418c0 .682-.157 1.05-.157 1.207H16.591c.683-2.625 2.153-5.25 4.515-7.875Zm10.5-6.668V42h-5.25v40.425c2.625-1.313 4.253-2.1 5.25-2.468Zm15.75-43.207V31.5h-10.5v5.25h10.5Zm0-15.75h-10.5v5.25h10.5V21Zm-21 0v5.25h5.25V21h-5.25Zm0 10.5v5.25h5.25V31.5h-5.25Zm-15.75 68.25h105l-10.5 10.5h-84l-10.5-10.5Z" fill="#fff"/></svg>