<svg width="127" height="126" fill="none" xmlns="http://www.w3.org/2000/svg"><path d="M63.394 91.532c6.395 0 11.831-2.239 16.31-6.717 4.478-4.478 6.716-9.913 6.712-16.305 0-6.395-2.239-11.832-6.717-16.31-4.479-4.479-9.914-6.716-16.305-6.713-6.396 0-11.832 2.24-16.31 6.718-4.479 4.478-6.717 9.913-6.713 16.305 0 6.395 2.24 11.832 6.717 16.31 4.479 4.478 9.914 6.716 16.306 6.712Zm0-10.232c-3.582 0-6.609-1.236-9.082-3.71-2.472-2.472-3.709-5.499-3.709-9.08 0-3.582 1.237-6.609 3.71-9.081 2.472-2.473 5.5-3.71 9.08-3.71 3.582 0 6.609 1.237 9.082 3.71 2.473 2.472 3.709 5.5 3.709 9.08 0 3.582-1.236 6.61-3.71 9.082-2.472 2.473-5.5 3.71-9.08 3.71Zm-40.93 28.139c-2.813 0-5.223-1.003-7.229-3.008-2.005-2.006-3.006-4.414-3.003-7.224V37.813c0-2.814 1.003-5.224 3.009-7.23 2.005-2.005 4.413-3.006 7.224-3.002H38.58l9.465-10.233h30.697l9.465 10.233h16.116c2.814 0 5.223 1.002 7.229 3.008 2.005 2.005 3.006 4.413 3.003 7.224v61.394c0 2.813-1.003 5.223-3.008 7.229-2.006 2.005-4.414 3.006-7.224 3.003H22.465Z" fill="#fff"/></svg>